<svg width="60" height="60" viewBox="0 0 60 60" fill="none" xmlns="http://www.w3.org/2000/svg">
<path d="M54.375 30C54.375 23.5353 51.8069 17.3355 47.2357 12.7643C42.6645 8.19307 36.4647 5.625 30 5.625C23.5353 5.625 17.3355 8.19307 12.7643 12.7643C8.19307 17.3355 5.625 23.5353 5.625 30C5.625 36.4647 8.19307 42.6645 12.7643 47.2357C17.3355 51.8069 23.5353 54.375 30 54.375C36.4647 54.375 42.6645 51.8069 47.2357 47.2357C51.8069 42.6645 54.375 36.4647 54.375 30ZM0 30C0 22.0435 3.16071 14.4129 8.7868 8.7868C14.4129 3.16071 22.0435 0 30 0C37.9565 0 45.5871 3.16071 51.2132 8.7868C56.8393 14.4129 60 22.0435 60 30C60 37.9565 56.8393 45.5871 51.2132 51.2132C45.5871 56.8393 37.9565 60 30 60C22.0435 60 14.4129 56.8393 8.7868 51.2132C3.16071 45.5871 0 37.9565 0 30ZM20.4609 45.0117C19.9336 46.4766 18.3281 47.2266 16.8633 46.6992C15.3984 46.1719 14.6484 44.5664 15.1758 43.1016C17.2148 37.4297 23.3086 33.75 30 33.75C36.6914 33.75 42.7852 37.4297 44.8359 43.1133C45.3633 44.5781 44.6016 46.1836 43.1484 46.7109C41.6953 47.2383 40.0781 46.4766 39.5508 45.0234C38.4609 42.0117 34.8281 39.375 30 39.375C25.1719 39.375 21.5391 42.0117 20.4609 45.0117ZM16.9219 24.375C16.9219 23.3804 17.317 22.4266 18.0202 21.7234C18.7235 21.0201 19.6773 20.625 20.6719 20.625C21.6664 20.625 22.6203 21.0201 23.3235 21.7234C24.0268 22.4266 24.4219 23.3804 24.4219 24.375C24.4219 25.3696 24.0268 26.3234 23.3235 27.0266C22.6203 27.7299 21.6664 28.125 20.6719 28.125C19.6773 28.125 18.7235 27.7299 18.0202 27.0266C17.317 26.3234 16.9219 25.3696 16.9219 24.375ZM39.4219 20.625C40.4164 20.625 41.3703 21.0201 42.0735 21.7234C42.7768 22.4266 43.1719 23.3804 43.1719 24.375C43.1719 25.3696 42.7768 26.3234 42.0735 27.0266C41.3703 27.7299 40.4164 28.125 39.4219 28.125C38.4273 28.125 37.4735 27.7299 36.7702 27.0266C36.067 26.3234 35.6719 25.3696 35.6719 24.375C35.6719 23.3804 36.067 22.4266 36.7702 21.7234C37.4735 21.0201 38.4273 20.625 39.4219 20.625Z" fill="#D1F7EC"/>
</svg>
